# xmcd CD database file
#
# Track frame offsets:
#	150
#	40716
#	87530
#	115649
#	141391
#	171223
#
# Disc length: 2744 seconds
#
# Revision: 0
# Processed by: cddbd v1.5.1PL2 Copyright (c) Steve Scherf et al.
# Submitted via: CDex 1.51
#
DISCID=4b0ab606
DTITLE=Passierzettel - Nouar
DYEAR=1900
DGENRE=New Age
TTITLE0=Book of Micromegas
TTITLE1=Chinese Novel
TTITLE2=Life is trite
TTITLE3=Chessrock/He hated it
TTITLE4=Old Roc n Roll Thing
TTITLE5=Out of my Head
EXTD=
EXTT0=
EXTT1=
EXTT2=
EXTT3=
EXTT4=
EXTT5=
PLAYORDER=
